<svg id="Layer_1" enable-background="new 0 0 512 512" height="512" viewBox="0 0 512 512" width="512" xmlns="http://www.w3.org/2000/svg"><g><path d="m80 256c0-120.176 89.826-219.372 206-234.11-9.824-1.247-19.837-1.89-30-1.89-130.339 0-236 105.661-236 236s105.661 236 236 236c10.163 0 20.176-.643 30-1.89-116.174-14.738-206-113.934-206-234.11z" fill="#cee1f2"/><path d="m256 512c-68.38 0-132.667-26.629-181.02-74.98-48.351-48.353-74.98-112.64-74.98-181.02s26.629-132.667 74.98-181.02c48.353-48.351 112.64-74.98 181.02-74.98s132.667 26.629 181.02 74.98c48.351 48.353 74.98 112.64 74.98 181.02s-26.629 132.667-74.98 181.02c-48.353 48.351-112.64 74.98-181.02 74.98zm0-472c-119.103 0-216 96.897-216 216s96.897 216 216 216 216-96.897 216-216-96.897-216-216-216zm40 296c-66.168 0-120-53.832-120-120s53.832-120 120-120 120 53.832 120 120-53.832 120-120 120zm0-200c-44.112 0-80 35.888-80 80s35.888 80 80 80 80-35.888 80-80-35.888-80-80-80z" fill="#1428bf"/><path d="m142.002 387c-5.211 0-10.416-2.023-14.336-6.053-7.703-7.917-7.529-20.579.387-28.282l37-36c7.918-7.701 20.579-7.527 28.282.388 7.703 7.917 7.529 20.579-.387 28.282l-37 36c-3.888 3.781-8.92 5.665-13.946 5.665zm194.998-171c0-22.607-18.393-41-41-41-11.046 0-20 8.954-20 20s8.954 20 20 20c.551 0 1 .448 1 1 0 11.046 8.954 20 20 20s20-8.954 20-20z" fill="#de5cee"/></g></svg>